<?xml version="1.0" encoding="UTF-8" standalone="no"?>
<!-- Created with Inkscape (http://www.inkscape.org/) -->

<svg
   width="42.959484mm"
   height="52.318432mm"
   viewBox="0 0 42.959484 52.318432"
   version="1.1"
   id="svg1410"
   inkscape:version="1.1 (c68e22c387, 2021-05-23)"
   sodipodi:docname="js.svg"
   xmlns:inkscape="http://www.inkscape.org/namespaces/inkscape"
   xmlns:sodipodi="http://sodipodi.sourceforge.net/DTD/sodipodi-0.dtd"
   xmlns="http://www.w3.org/2000/svg"
   xmlns:svg="http://www.w3.org/2000/svg">
  <sodipodi:namedview
     id="namedview1412"
     pagecolor="#ffffff"
     bordercolor="#666666"
     borderopacity="1.0"
     inkscape:pageshadow="2"
     inkscape:pageopacity="0.0"
     inkscape:pagecheckerboard="0"
     inkscape:document-units="mm"
     showgrid="false"
     fit-margin-top="10"
     fit-margin-left="10"
     fit-margin-right="10"
     fit-margin-bottom="10"
     inkscape:zoom="0.45611672"
     inkscape:cx="128.25664"
     inkscape:cy="95.370325"
     inkscape:window-width="1920"
     inkscape:window-height="1009"
     inkscape:window-x="1358"
     inkscape:window-y="-8"
     inkscape:window-maximized="1"
     inkscape:current-layer="layer1" />
  <defs
     id="defs1407" />
  <g
     inkscape:label="Calque 1"
     inkscape:groupmode="layer"
     id="layer1"
     transform="translate(-71.332758,-122.92086)">
    <g
       id="g1510">
      <g
         id="g1023"
         transform="matrix(0.35277777,0,0,-0.35277777,98.68766,158.62083)">
        <path
           d="M 0,0 -16.654,-4.729 -33.308,0 -34.483,12.672 h 8.225 l 0.543,-6.341 9.061,-2.611 8.924,2.572 0.913,10.479 h -9.837 -18.14 l -0.048,-0.156 2.289,24.773 H -16.654 0.382 L 2.191,28.416 h -8.298 l -0.304,4.747 h -10.243 -9.217 l -0.378,-8.293 h 9.595 18.946 z m -16.654,54.895 h -32.541 l 6.098,-66.16 26.443,-7.496 26.433,7.496 6.108,66.16 z"
           style="fill:#e7a020;fill-opacity:1;fill-rule:nonzero;stroke:none"
           id="path1025" />
      </g>
      <g
         id="g1027"
         transform="matrix(0.35277777,0,0,-0.35277777,90.57826,135.81223)">
        <path
           d="M 0,0 H -5.787 V -4.156 H 0 3.099 4.147 V 8.196 H 0 Z"
           style="fill:#e7a020;fill-opacity:1;fill-rule:nonzero;stroke:none"
           id="path1029" />
      </g>
      <g
         id="g1031"
         transform="matrix(0.35277777,0,0,-0.35277777,97.08845,132.94298)">
        <path
           d="m 0,0 h -10.095 v -4.326 c 1.35,-1.35 2.055,-1.997 4.009,-3.95 -1.143,0 -4.009,-0.004 -4.009,-0.004 v -3.946 H 0 v 3.947 l -4.032,3.953 H 0 Z"
           style="fill:#e7a020;fill-opacity:1;fill-rule:nonzero;stroke:none"
           id="path1033" />
      </g>
    </g>
  </g>
</svg>
