<?xml version="1.0" encoding="UTF-8" standalone="no"?>
<!-- Created with Inkscape (http://www.inkscape.org/) -->

<svg
   width="48.341003mm"
   height="48.339123mm"
   viewBox="0 0 48.341003 48.339123"
   version="1.1"
   id="svg1007"
   inkscape:version="1.1 (c68e22c387, 2021-05-23)"
   sodipodi:docname="wordpress.svg"
   xmlns:inkscape="http://www.inkscape.org/namespaces/inkscape"
   xmlns:sodipodi="http://sodipodi.sourceforge.net/DTD/sodipodi-0.dtd"
   xmlns="http://www.w3.org/2000/svg"
   xmlns:svg="http://www.w3.org/2000/svg">
  <sodipodi:namedview
     id="namedview1009"
     pagecolor="#ffffff"
     bordercolor="#666666"
     borderopacity="1.0"
     inkscape:pageshadow="2"
     inkscape:pageopacity="0.0"
     inkscape:pagecheckerboard="0"
     inkscape:document-units="mm"
     showgrid="false"
     fit-margin-top="10"
     fit-margin-left="10"
     fit-margin-bottom="10"
     fit-margin-right="10"
     inkscape:zoom="0.45611672"
     inkscape:cx="86.60064"
     inkscape:cy="240.07013"
     inkscape:window-width="1920"
     inkscape:window-height="1009"
     inkscape:window-x="1358"
     inkscape:window-y="-8"
     inkscape:window-maximized="1"
     inkscape:current-layer="layer1" />
  <defs
     id="defs1004" />
  <g
     inkscape:label="Calque 1"
     inkscape:groupmode="layer"
     id="layer1"
     transform="translate(-82.563769,-84.885215)">
    <path
       d="m 93.926835,108.53459 c 0.06562,-1.56774 0.399697,-3.08081 1.034697,-4.52191 0.02963,-0.0667 0.03916,-0.1471 0.118886,-0.18485 0.108303,0.0162 0.111478,0.1143 0.138289,0.18838 0.277636,0.76588 0.552803,1.53317 0.828322,2.29976 0.940506,2.61832 1.88207,5.23663 2.820811,7.8553 0.644878,1.79882 1.28587,3.59869 1.93005,5.3975 0.0632,0.17639 0.14534,0.34608 0.20073,0.52458 0.0423,0.13547 0.1845,0.30092 0.0571,0.41205 -0.11183,0.0974 -0.25824,-0.0515 -0.37677,-0.11395 -0.73166,-0.38629 -1.410757,-0.85231 -2.051754,-1.37372 -1.386064,-1.12712 -2.484614,-2.49025 -3.297414,-4.07846 -1.0287,-2.00977 -1.497541,-4.15008 -1.402997,-6.40468 m 2.327628,-6.85482 c 0.54363,-0.7553 1.155347,-1.45133 1.845027,-2.077158 2.15582,-1.95615 4.68771,-3.05647 7.58261,-3.33657 0.36512,-0.0353 0.72883,-0.0494 1.09502,-0.0476 3.18205,0.0208 5.98381,1.06292 8.39999,3.1362 0.0741,0.0635 0.19826,0.121 0.16016,0.23883 -0.0342,0.10583 -0.16192,0.0741 -0.24941,0.0822 -1.41676,0.12912 -2.29235,1.539878 -1.80199,3.125258 0.19261,0.62195 0.53375,1.17758 0.87736,1.72509 0.7948,1.26541 1.31974,2.6102 1.24107,4.13243 -0.0522,1.01847 -0.29951,2.00131 -0.6417,2.95769 -0.47096,1.31516 -0.86078,2.65536 -1.26436,3.99133 -0.0949,0.31397 -0.18556,0.62936 -0.28787,0.94051 -0.0293,0.0893 -0.0212,0.23989 -0.15522,0.23142 -0.10336,-0.006 -0.10442,-0.14217 -0.13229,-0.22719 -0.49812,-1.51342 -0.99236,-3.02824 -1.49084,-4.54166 -0.9465,-2.87549 -1.89512,-5.75028 -2.84233,-8.62506 -0.11959,-0.36301 -0.0917,-0.393 0.29422,-0.41699 0.36442,-0.0229 0.72919,-0.0508 1.09079,-0.10054 0.30409,-0.0423 0.45226,-0.22366 0.44308,-0.48436 -0.009,-0.26212 -0.20355,-0.45826 -0.50588,-0.45897 -0.34607,-7e-4 -0.69285,0.0258 -1.03752,0.0568 -1.78012,0.16016 -3.5567,0.0974 -5.33329,-0.0586 -0.13018,-0.0113 -0.26212,-0.0162 -0.393,-0.012 -0.30903,0.01 -0.47907,0.15558 -0.502,0.42016 -0.0243,0.28505 0.12065,0.47872 0.42721,0.52247 0.36125,0.0512 0.72567,0.0836 1.08973,0.11253 0.18204,0.0145 0.28999,0.0924 0.35208,0.26529 0.60254,1.68557 1.20826,3.37009 1.81645,5.05354 0.0579,0.16052 0.0423,0.3041 -0.0113,0.46285 -0.8823,2.60949 -1.75895,5.22076 -2.64019,7.83096 -0.0342,0.10125 -0.03,0.27128 -0.1524,0.27481 -0.14358,0.004 -0.1457,-0.17392 -0.18097,-0.2801 -0.55634,-1.69157 -1.10526,-3.38561 -1.66018,-5.07753 -0.88265,-2.68923 -1.768118,-5.3781 -2.653238,-8.06662 -0.138289,-0.41945 -0.130175,-0.44062 0.300567,-0.48754 0.307269,-0.0339 0.61595,-0.0533 0.923571,-0.0822 0.37853,-0.036 0.59161,-0.23459 0.56691,-0.52352 -0.0258,-0.29774 -0.26105,-0.46073 -0.63746,-0.43603 -1.206152,0.0787 -2.412652,0.15734 -3.622679,0.127 -0.04692,-0.001 -0.09419,0.001 -0.140759,-0.002 -0.09137,-0.007 -0.203905,0.0194 -0.258233,-0.072 -0.06526,-0.10972 0.03175,-0.19333 0.08925,-0.27305 m 21.446421,4.97804 c 0.19156,-0.82479 0.29845,-1.65876 0.29386,-2.41582 -0.0113,-0.39934 0.006,-0.70908 -0.0448,-1.01635 -0.0123,-0.0773 -0.0571,-0.19368 0.0455,-0.22155 0.0998,-0.0275 0.121,0.097 0.15699,0.16616 0.54151,1.03787 0.90487,2.13819 1.14018,3.28189 0.3249,1.57798 0.34607,3.16371 0.0642,4.74733 -0.53482,3.00391 -1.96215,5.50969 -4.24604,7.53251 -0.55633,0.49283 -1.15605,0.92252 -1.78999,1.30705 -0.0681,0.0413 -0.14006,0.13264 -0.22331,0.0695 -0.0847,-0.0642 -0.0162,-0.15698 0.0102,-0.23212 0.64911,-1.82739 1.30528,-3.65267 1.9491,-5.48217 0.55703,-1.58186 1.0929,-3.17077 1.65241,-4.75157 0.34995,-0.98883 0.75318,-1.95932 0.99166,-2.98485 m -7.1173,14.63005 c -1.24318,0.38347 -2.50966,0.61736 -3.38807,0.60254 -1.59491,-0.0113 -2.74708,-0.11818 -3.87244,-0.45296 -0.25048,-0.0748 -0.31151,-0.18451 -0.22402,-0.42581 0.32562,-0.89852 0.64453,-1.79952 0.95956,-2.70227 0.62935,-1.80411 1.25306,-3.61033 1.88207,-5.41479 0.28645,-0.82268 0.57855,-1.64359 0.87065,-2.46415 0.03,-0.0847 0.025,-0.22225 0.12877,-0.23001 0.12805,-0.01 0.13511,0.13793 0.16721,0.22719 0.35207,0.9786 0.69709,1.95968 1.04775,2.93899 0.70097,1.95756 1.40512,3.91407 2.10644,5.87128 0.18979,0.52916 0.37641,1.05974 0.56092,1.59067 0.10936,0.31539 0.084,0.35984 -0.23884,0.45932 m -3.77084,1.93534 c 7.70926,0.0183 14.22894,-6.3373 14.08995,-14.49141 -0.13194,-7.74947 -6.37082,-13.812308 -14.02398,-13.846518 -7.957605,-0.0356 -14.558077,6.388098 -14.307958,14.678728 0.225778,7.48629 6.372225,13.75339 14.241988,13.6592"
       style="fill:#585858;fill-opacity:1;fill-rule:nonzero;stroke:none;stroke-width:0.352778"
       id="path941" />
  </g>
</svg>
